<svg width="40" height="40" fill="none" xmlns="http://www.w3.org/2000/svg"><circle cx="20" cy="20" r="20" fill="#9D2F2F"/><path d="M23.334 27a1.667 1.667 0 110 3.333 1.667 1.667 0 010-3.333zm0 .833a.833.833 0 100 1.667.833.833 0 000-1.667zm-7.5-.833a1.667 1.667 0 110 3.333 1.667 1.667 0 010-3.333zm0 .833a.833.833 0 100 1.667.833.833 0 000-1.667zM25 17H13.561l2.123 5H22.5a.828.828 0 00.667-.335l2.5-3.333A.833.833 0 0025 17zm-2.5 5.833h-6.778l-.638 1.3L15 24.5a.834.834 0 00.834.833H25v.834h-9.166a1.667 1.667 0 01-1.459-2.475l.6-1.229-3.027-7.13h-1.114V14.5H12.5l.708 1.667H25a1.666 1.666 0 011.294 2.716l-2.428 3.239a1.665 1.665 0 01-1.366.711z" fill="#fff"/><path fill="#9D2F2F" d="M15 16h10v1H15z"/><path d="M19.717 18.283a.4.4 0 00.566 0l2.545-2.546a.4.4 0 00-.565-.565L20 17.434l-2.263-2.262a.4.4 0 00-.565.565l2.545 2.546zM19.6 8v10h.8V8h-.8z" fill="#fff"/></svg>