<svg width="40" height="40" fill="none" xmlns="http://www.w3.org/2000/svg"><circle cx="20" cy="20" r="20" fill="#9D2F2F"/><path d="M27.948 16.723a5.786 5.786 0 00-.372-1.966 4.088 4.088 0 00-2.34-2.336 5.88 5.88 0 00-1.942-.372C22.44 12.01 22.17 12 20 12s-2.448 0-3.296.049a5.88 5.88 0 00-1.942.372 4.096 4.096 0 00-2.339 2.336 5.805 5.805 0 00-.372 1.938c-.038.854-.05 1.125-.05 3.29 0 2.167 0 2.444.05 3.292.013.663.138 1.318.372 1.94a4.088 4.088 0 002.34 2.334c.62.243 1.276.378 1.942.4.855.037 1.126.049 3.296.049s2.448 0 3.296-.05a5.864 5.864 0 001.943-.371 4.102 4.102 0 002.339-2.336 5.835 5.835 0 00.372-1.94c.038-.853.05-1.124.05-3.29-.002-2.167-.002-2.442-.052-3.29zm-7.954 7.36a4.103 4.103 0 01-4.108-4.102 4.11 4.11 0 017.012-2.9 4.097 4.097 0 010 5.8 4.111 4.111 0 01-2.904 1.201zm4.27-7.398a.956.956 0 11.367-1.839.957.957 0 01-.366 1.84z" fill="#fff"/><path d="M19.995 22.485a2.502 2.502 0 100-5.005 2.502 2.502 0 000 5.005z" fill="#fff"/></svg>