<svg width="40" height="40" fill="none" xmlns="http://www.w3.org/2000/svg"><circle cx="20" cy="20" r="20" fill="#9D2F2F"/><path fill-rule="evenodd" clip-rule="evenodd" d="M19.852 24.937h.97s.291-.053.437-.211c.145-.159.145-.476.145-.476s0-1.374.582-1.586c.582-.211 1.359 1.375 2.135 1.956.582.476 1.018.37 1.018.37l2.134-.053s1.116-.053.582-1.057c-.048-.053-.29-.687-1.6-2.009-1.358-1.374-1.164-1.11.436-3.488.97-1.427 1.358-2.273 1.262-2.696-.098-.37-.825-.264-.825-.264h-2.425s-.194-.053-.291.053c-.146.105-.194.264-.194.264s-.388 1.11-.873 2.061c-1.067 1.956-1.504 2.062-1.65 1.956-.388-.264-.29-1.163-.29-1.744 0-1.903.29-2.696-.534-2.907-.243-.053-.437-.106-1.116-.106-.873 0-1.6 0-1.988.211-.291.159-.485.476-.34.476.146 0 .534.106.728.37.194.476.194 1.269.194 1.269s.145 2.273-.34 2.537c-.34.211-.776-.212-1.746-2.009-.485-.898-.873-1.955-.873-1.955s-.049-.212-.194-.318a1.26 1.26 0 00-.388-.158h-2.28s-.34 0-.485.158c-.097.159 0 .423 0 .423s1.795 4.546 3.832 6.872c1.892 2.22 3.977 2.061 3.977 2.061z" fill="#fff"/></svg>